<svg xmlns="http://www.w3.org/2000/svg" viewBox="0 0 381.69 315.36"><defs><style>.cls-1{fill:#ae401e;}</style></defs><g id="IQ"><path class="cls-1" d="M48.51,48.51H82.78V266.84H48.51Z"/><path class="cls-1" d="M104.74,158.19a104.48,104.48,0,0,1,8.5-41.73,113.52,113.52,0,0,1,23.42-35,110.21,110.21,0,0,1,34.56-23.87,107.6,107.6,0,0,1,84.49,0,113.16,113.16,0,0,1,35,23.87,111.33,111.33,0,0,1,23.73,35,107.91,107.91,0,0,1,0,83.91,108.72,108.72,0,0,1-23.87,34.7,112.45,112.45,0,0,1-35,23.43,110.69,110.69,0,0,1-84.35,0,109.78,109.78,0,0,1-34.56-23.14,108,108,0,0,1-23.42-34.56A106.62,106.62,0,0,1,104.74,158.19Zm35.15,0a75.63,75.63,0,0,0,5.71,29.29,76.45,76.45,0,0,0,16,24.31,73.21,73.21,0,0,0,53,22.26,70.53,70.53,0,0,0,52-22.12,78.71,78.71,0,0,0,15.52-24.16,76.32,76.32,0,0,0,5.71-29.58,74.1,74.1,0,0,0-5.85-29.28,79.88,79.88,0,0,0-15.82-24.17,72.83,72.83,0,0,0-105,.15,76,76,0,0,0-21.23,53.3ZM262.6,231.41h70.58v35.43H217.5Z"/></g></svg>